 <svg version="1.0" xmlns="http://www.w3.org/2000/svg" role="img" width="145.000000pt" height="188.000000pt" viewBox="0 0 145.000000 188.000000"  preserveAspectRatio="xMidYMid meet">  <g transform="translate(0.000000,188.000000) scale(0.050000,-0.050000)" fill="#32ab63" stroke="none"> <path d="M1300 3731 c-14 -18 -19 -52 -11 -82 8 -34 5 -48 -8 -39 -12 7 -21 3 -21 -9 0 -11 -13 -21 -28 -21 -16 0 -46 -24 -67 -52 -32 -45 -54 -53 -143 -54 -92 -1 -101 -5 -70 -28 38 -28 41 -27 -67 -33 -19 -1 -47 -18 -61 -37 -15 -20 -43 -36 -63 -36 -20 0 -47 -13 -60 -29 -13 -16 -37 -24 -53 -18 -18 8 -25 2 -18 -16 6 -16 -9 -36 -35 -47 -25 -12 -44 -36 -42 -57 2 -24 -7 -32 -27 -24 -33 12 -184 -139 -185 -185 -1 -15 -9 -21 -20 -15 -10 7 -34 -20 -52 -59 -19 -38 -42 -70 -53 -70 -11 0 -15 -13 -9 -30 7 -16 5 -30 -3 -30 -9 0 -31 -27 -51 -60 -19 -33 -29 -60 -22 -60 8 0 5 -11 -5 -25 -27 -35 -88 -228 -81 -259 3 -14 -5 -24 -17 -22 -13 2 -21 -32 -20 -90 2 -116 53 -183 141 -185 49 -2 53 -5 22 -17 -34 -13 -35 -16 -5 -28 29 -11 34 -45 34 -231 0 -157 7 -221 25 -228 14 -6 37 -63 51 -127 40 -179 43 -187 75 -175 20 8 26 2 18 -18 -13 -34 86 -161 113 -144 10 6 18 -6 18 -28 0 -63 64 -243 83 -231 9 6 17 -6 17 -27 0 -90 116 -248 201 -275 20 -7 43 -31 50 -54 10 -31 17 -35 30 -15 12 20 22 21 44 3 16 -13 36 -17 45 -9 9 8 11 5 4 -7 -13 -22 56 -188 78 -188 6 0 5 11 -2 25 -7 14 0 9 15 -10 16 -19 35 -29 42 -21 7 7 13 -7 13 -32 0 -37 8 -42 45 -31 45 14 45 14 -3 -29 l-48 -42 58 11 c45 9 71 1 114 -39 92 -85 254 -132 254 -73 0 10 19 24 41 31 25 8 38 25 31 42 -6 15 0 25 14 23 13 -3 21 11 18 30 -5 29 2 32 44 16 39 -15 48 -13 40 8 -6 15 9 41 33 57 26 19 37 40 28 56 -11 17 -3 21 28 13 36 -10 39 -6 22 27 -16 30 -14 35 11 25 21 -8 30 1 30 29 0 47 88 124 141 124 55 0 172 131 211 236 20 52 52 124 72 160 35 63 51 117 55 184 1 18 8 22 16 10 18 -24 66 -36 63 -15 -6 39 4 66 21 56 20 -13 32 18 52 133 7 40 24 78 38 83 14 5 36 50 50 100 19 69 33 88 58 80 20 -7 25 -4 12 6 -30 25 -25 373 6 393 38 24 31 110 -10 120 -32 9 -32 10 1 12 20 1 32 9 26 18 -5 9 19 14 54 11 59 -6 60 -5 14 11 -48 17 -48 18 -5 20 25 1 45 10 45 20 0 10 23 23 50 30 64 16 72 149 13 206 -53 51 -62 92 -25 120 28 22 26 25 -13 25 -25 1 -45 11 -45 23 0 53 -66 160 -83 134 -11 -17 -16 -6 -17 35 0 33 -15 82 -33 108 -25 35 -26 43 -5 31 15 -9 1 9 -32 42 -36 35 -66 50 -75 38 -8 -11 -15 -6 -15 13 0 19 11 39 25 45 14 6 3 6 -25 -1 -27 -6 -44 -5 -36 3 8 8 1 34 -15 57 -16 23 -29 59 -29 80 0 28 -10 35 -40 27 -42 -11 -180 103 -180 148 0 12 -14 17 -31 10 -36 -13 -168 67 -169 103 0 14 11 25 25 25 17 1 15 7 -5 20 -44 29 -66 24 -52 -11 6 -17 3 -26 -7 -20 -9 6 -21 4 -26 -4 -5 -8 -6 -4 -2 10 3 14 -2 25 -12 25 -10 0 -22 -11 -27 -25 -7 -20 -14 -20 -36 0 -21 21 -21 25 3 27 16 0 -11 12 -61 25 -69 18 -91 33 -96 68 -4 25 -16 45 -26 45 -40 0 -103 78 -93 115 13 51 -263 65 -305 16z m220 -126 c0 -51 7 -66 28 -59 17 7 33 -6 40 -32 19 -70 14 -94 -18 -94 -84 0 -12 -35 116 -57 464 -78 879 -489 1023 -1013 18 -66 42 -137 53 -157 19 -34 12 -36 -111 -30 l-131 7 0 -250 c-1 -288 -31 -458 -117 -647 l-61 -134 -69 28 -69 29 -13 -113 c-41 -371 -121 -508 -251 -433 -65 37 -80 37 -80 -2 0 -123 -330 -528 -430 -528 -100 0 -430 427 -430 556 0 19 -18 14 -58 -15 -138 -98 -262 117 -262 451 0 81 -27 100 -84 59 -64 -44 -68 -42 -123 74 -92 195 -120 343 -121 649 l-2 284 -90 -11 c-50 -6 -101 -14 -114 -18 -49 -15 -44 30 22 229 197 586 667 1000 1138 1003 91 0 100 4 69 27 -44 33 -46 129 -4 145 21 8 28 27 21 57 -14 55 -9 60 66 62 58 2 62 -3 62 -67z"/> <path d="M1415 3333 c7 -12 -3 -14 -24 -6 -19 7 -95 -4 -168 -25 -73 -21 -175 -50 -227 -64 -52 -14 -90 -30 -86 -35 16 -15 -93 -64 -113 -51 -11 7 -24 -5 -30 -26 -5 -21 -44 -60 -87 -86 -42 -26 -87 -69 -99 -95 -11 -26 -30 -42 -41 -35 -11 7 -20 -3 -20 -22 0 -19 -6 -29 -13 -21 -8 7 -30 -23 -49 -67 -20 -45 -50 -86 -66 -92 -16 -6 -35 -37 -42 -69 -7 -31 -31 -80 -53 -108 -41 -52 -67 -198 -33 -186 10 3 40 58 65 121 426 1048 1782 1072 2192 39 51 -129 74 -165 105 -165 14 0 14 8 -2 24 -13 13 -24 37 -24 52 0 40 -105 264 -124 264 -9 0 -16 11 -16 23 0 13 -13 38 -28 55 -16 18 -32 44 -35 58 -4 15 -69 87 -144 160 -190 187 -199 194 -212 192 -6 -1 -60 20 -119 46 -59 27 -153 57 -208 67 -55 11 -111 28 -124 39 -13 11 -29 14 -36 8 -6 -7 -23 -4 -38 5 -36 23 -116 23 -101 0z"/> <path d="M845 2564 c-57 -101 -211 -197 -378 -237 -142 -34 -205 -66 -136 -68 38 -2 38 -2 -1 -21 -29 -13 -12 -16 60 -9 55 5 82 3 60 -5 -36 -13 -40 -32 -40 -208 0 -107 6 -179 13 -160 8 18 14 -29 15 -106 1 -161 40 -342 89 -411 38 -55 42 -38 12 61 -68 233 -97 540 -66 723 11 69 20 76 134 118 68 24 160 74 206 111 l83 67 56 -74 c31 -41 97 -113 147 -160 75 -70 87 -91 69 -120 -12 -19 -56 -102 -99 -185 -140 -270 -254 -417 -449 -578 -53 -43 -44 -49 70 -43 40 2 51 -3 34 -15 -19 -13 -21 -31 -7 -66 11 -26 35 -118 54 -204 19 -86 49 -172 67 -191 17 -19 27 -25 20 -14 -11 21 -44 206 -70 396 -12 91 -9 98 80 197 51 56 92 110 92 120 0 47 44 9 89 -77 27 -52 80 -135 117 -185 l67 -90 -98 -125 c-54 -69 -120 -142 -147 -163 -32 -26 -44 -50 -36 -75 9 -28 7 -30 -8 -10 -12 17 -24 20 -31 7 -18 -29 38 -45 65 -18 16 16 22 15 22 -6 0 -20 7 -19 25 6 22 31 25 27 29 -27 5 -67 136 -299 170 -299 11 0 15 -13 9 -30 -6 -16 -5 -28 3 -25 8 2 40 -21 72 -50 94 -89 102 -63 12 40 -187 211 -248 388 -166 479 27 31 72 90 100 131 59 87 67 89 116 35 46 -51 66 -50 126 5 l49 45 42 -59 c24 -33 75 -95 115 -138 96 -107 46 -268 -152 -489 -103 -115 -95 -141 12 -39 37 36 75 63 83 60 8 -3 15 9 15 25 0 17 9 30 20 30 11 0 20 18 20 40 0 22 9 40 20 40 11 0 20 19 20 41 0 23 9 36 20 29 12 -7 20 16 20 58 0 55 7 68 30 59 19 -7 30 1 30 22 0 28 12 32 60 21 81 -18 76 5 -26 100 -47 44 -112 116 -144 160 -32 44 -67 86 -79 94 -14 10 -14 24 -1 43 126 177 187 271 199 308 16 53 42 58 66 14 10 -17 55 -70 100 -117 l83 -85 -27 -158 c-15 -88 -32 -204 -38 -259 l-12 -100 32 70 c18 39 37 114 43 167 6 68 15 89 28 70 13 -18 15 1 7 53 -10 61 -7 73 10 50 17 -24 20 -16 14 35 -7 56 -2 65 35 65 78 0 69 23 -56 147 -138 137 -222 258 -361 520 l-94 177 108 103 c60 57 124 128 143 158 l34 55 61 -51 c71 -60 171 -111 290 -149 l85 -26 0 -238 c0 -239 -36 -481 -92 -614 -29 -69 -29 -69 12 -32 22 20 40 53 40 74 0 23 9 33 22 25 15 -10 18 0 8 31 -11 33 -8 41 11 30 19 -12 21 -2 11 39 -8 32 -6 50 5 43 11 -7 15 6 9 28 -6 22 0 53 13 69 16 19 23 97 21 225 -6 350 -8 339 62 353 89 18 48 60 -87 90 -211 48 -342 133 -451 295 -17 25 -29 30 -36 14 -67 -150 -317 -425 -465 -511 l-60 -35 -149 119 c-147 119 -297 294 -334 391 -26 68 -45 63 -95 -26z m520 -584 c54 -50 77 -50 143 2 64 51 102 40 121 -34 7 -31 49 -117 93 -191 l79 -136 -41 -76 c-72 -133 -209 -332 -285 -415 -49 -53 -150 49 -306 309 l-107 179 68 113 c37 62 84 152 104 201 40 97 67 107 131 48z"/> </g> </svg> 