 <svg version="1.0" xmlns="http://www.w3.org/2000/svg"  width="300.000000pt" role="img" height="300.000000pt" viewBox="0 0 300.000000 300.000000"  preserveAspectRatio="xMidYMid meet"><g transform="translate(0.000000,300.000000) scale(0.050000,-0.050000)" fill="#32ab64" stroke="none"> <path d="M2928 4888 c-10 -40 -48 -71 -94 -76 -8 -1 -23 -14 -32 -30 -10 -16 -28 -21 -43 -11 -18 10 -20 7 -9 -11 12 -20 7 -23 -18 -14 -20 8 -29 6 -22 -6 7 -12 -13 -20 -48 -20 -33 0 -66 -10 -73 -21 -7 -12 -25 -17 -40 -11 -17 6 -23 0 -17 -17 7 -16 -7 -33 -35 -42 -25 -8 -58 -27 -73 -42 -15 -15 -35 -22 -46 -16 -10 6 -18 -1 -18 -16 0 -16 -36 -67 -80 -115 -44 -48 -80 -93 -80 -101 0 -8 -14 -20 -31 -27 -17 -6 -26 -20 -20 -30 6 -10 -3 -33 -20 -50 -18 -18 -26 -32 -18 -32 8 0 3 -13 -11 -30 -14 -16 -18 -30 -10 -30 7 0 -5 -32 -27 -70 -32 -54 -39 -90 -29 -155 6 -47 12 -96 12 -109 0 -13 10 -19 21 -12 12 8 15 -1 7 -20 -7 -18 -2 -39 10 -46 13 -9 17 -5 8 9 -8 13 -6 23 5 23 26 0 49 -89 58 -220 10 -164 12 -180 26 -180 7 0 11 -31 10 -69 -1 -37 5 -64 13 -58 9 5 23 -7 30 -27 8 -20 35 -57 61 -83 26 -26 43 -59 37 -74 -6 -17 0 -23 19 -16 21 8 29 -4 29 -41 0 -29 9 -52 20 -52 11 0 20 -12 20 -27 0 -15 18 -48 40 -73 22 -25 40 -52 40 -60 0 -18 71 -100 87 -100 14 0 93 -75 93 -88 0 -5 28 -37 61 -70 34 -34 56 -71 49 -82 -7 -12 13 -20 50 -20 54 0 59 -5 42 -37 -18 -32 -13 -37 33 -32 29 4 71 -3 93 -15 29 -16 42 -16 48 1 4 13 19 23 34 23 15 0 61 32 101 70 41 38 82 70 92 70 9 0 17 14 17 30 0 17 13 30 28 30 15 0 33 14 40 31 7 19 22 25 37 16 20 -12 20 -8 0 17 -22 26 -19 30 20 28 32 -1 47 11 51 41 4 25 30 53 64 67 36 15 53 34 47 52 -6 15 3 33 20 39 18 8 30 35 29 71 -2 39 17 79 53 117 30 31 54 63 53 69 -6 37 0 53 16 43 10 -6 16 11 13 37 -3 32 3 45 19 39 31 -12 49 32 41 100 -3 29 2 47 11 42 22 -14 37 52 46 200 5 66 18 123 30 127 12 4 22 20 22 36 0 29 71 111 84 97 4 -4 8 21 7 57 0 39 -14 75 -37 91 -30 22 -31 31 -10 50 15 13 23 21 18 18 -17 -10 -64 76 -52 95 7 11 1 20 -12 20 -14 0 -19 6 -11 13 7 8 -2 30 -20 50 -18 21 -27 43 -20 51 7 7 -10 38 -39 68 -28 30 -51 60 -50 66 6 37 0 53 -17 43 -25 -16 -121 76 -121 116 0 18 -14 33 -31 33 -19 0 -26 -10 -19 -25 7 -14 -2 -7 -19 15 -18 22 -39 41 -47 42 -48 6 -85 35 -63 49 15 9 -1 21 -43 31 -38 9 -75 17 -83 19 -8 2 -27 5 -41 7 -15 1 -44 16 -65 33 -22 18 -25 25 -9 17 26 -14 26 -11 3 18 -16 19 -40 34 -54 34 -15 0 -41 20 -58 44 -17 25 -31 34 -31 21 0 -13 -13 -19 -30 -12 -16 6 -25 19 -19 29 20 33 -16 19 -44 -17 -21 -28 -25 -28 -16 -3 7 20 -1 31 -21 31 -17 0 -36 -20 -42 -45z m152 -88 c0 -22 10 -40 23 -40 14 0 18 -21 10 -58 -10 -54 -7 -58 70 -68 286 -38 565 -311 685 -667 l51 -152 -87 12 -88 12 -7 -235 c-10 -282 -80 -485 -155 -445 -57 30 -55 32 -69 -97 -12 -119 -65 -282 -91 -282 -8 0 -32 13 -53 29 -56 42 -60 40 -90 -52 -32 -96 -206 -297 -259 -297 -56 0 -199 154 -253 272 l-50 108 -58 -30 c-82 -43 -111 14 -147 287 -11 84 -23 95 -63 62 -71 -59 -154 185 -157 465 l-2 214 -85 -12 c-47 -6 -85 -7 -85 -2 0 37 93 283 134 356 153 268 428 460 660 460 36 0 66 9 66 20 0 11 -8 20 -17 20 -10 0 -8 36 4 80 24 90 113 121 113 40z"/> <path d="M2880 4590 c-38 -15 -86 -28 -105 -28 -50 -3 -275 -148 -335 -216 -100 -113 -201 -280 -199 -330 0 -14 25 23 55 84 315 637 1219 608 1455 -47 20 -56 39 -92 43 -80 8 23 -53 166 -108 254 -169 269 -576 452 -806 363z"/> <path d="M3331 4090 c-41 -77 -277 -310 -314 -310 -55 0 -307 252 -343 344 -7 17 -30 2 -66 -41 -54 -68 -226 -162 -293 -163 -43 0 -47 -51 -5 -67 23 -9 30 -49 30 -184 0 -169 29 -340 62 -360 9 -6 6 19 -7 55 -13 36 -23 159 -24 273 l-1 207 98 37 c54 20 117 55 140 77 l42 40 96 -108 95 -109 -71 -140 c-39 -78 -120 -199 -180 -271 -106 -124 -109 -131 -76 -169 18 -22 37 -60 40 -85 19 -134 44 -159 33 -32 -11 129 -9 136 56 214 68 83 97 100 97 59 0 -12 32 -66 70 -120 l71 -98 -55 -75 c-31 -41 -82 -97 -114 -126 l-57 -52 47 -12 c30 -8 69 -49 102 -108 49 -88 145 -206 167 -206 5 0 -24 42 -63 94 -128 168 -135 223 -40 333 60 70 70 75 108 51 35 -22 47 -21 79 7 35 32 41 29 110 -64 88 -117 71 -221 -60 -357 -14 -15 -25 -33 -24 -40 1 -25 117 122 149 189 18 37 54 78 80 92 l49 25 -66 70 c-140 149 -143 161 -65 276 37 56 72 113 76 127 11 31 155 -121 155 -163 -1 -16 -8 -68 -17 -115 -9 -47 -9 -85 1 -85 9 0 17 15 17 33 0 66 47 187 73 187 43 0 33 18 -79 139 -59 64 -144 188 -191 277 l-84 162 49 32 c26 18 69 62 94 98 l45 67 89 -57 c48 -30 114 -61 146 -68 70 -16 91 -304 36 -496 -9 -34 -10 -53 0 -43 32 36 62 208 62 359 0 113 8 161 32 185 29 29 22 35 -88 68 -114 35 -209 105 -254 184 -18 31 -25 27 -59 -37z m-362 -381 c44 -29 53 -29 96 0 47 31 48 30 121 -113 l74 -144 -65 -107 c-164 -271 -178 -273 -328 -41 -104 159 -102 130 -22 297 75 158 63 148 124 108z"/> <path d="M1900 2278 c0 -12 -14 -17 -31 -11 -17 7 -45 -5 -64 -27 -19 -22 -47 -40 -63 -40 -16 0 -23 -6 -16 -12 15 -16 -35 -68 -65 -68 -11 0 -21 -13 -21 -29 0 -16 -9 -34 -20 -41 -11 -7 -15 1 -9 16 6 16 -4 35 -22 42 -19 7 -28 25 -22 41 7 19 1 25 -18 18 -16 -6 -29 -1 -29 11 0 12 -9 22 -20 22 -11 0 -37 15 -59 34 -117 100 -317 -73 -322 -280 -7 -324 8 -560 39 -598 12 -14 53 -65 91 -112 111 -137 211 -180 419 -179 99 1 163 9 148 18 -19 12 -15 16 14 17 22 0 52 18 66 41 14 22 34 35 45 29 10 -7 19 -2 19 11 0 13 14 18 30 12 17 -7 30 -1 30 11 0 13 12 7 27 -13 15 -21 37 -31 48 -24 12 7 25 2 30 -11 5 -15 47 -25 105 -25 63 -1 100 -10 106 -28 7 -21 0 -22 -32 -5 -25 13 -46 15 -53 3 -19 -30 59 -44 119 -21 30 11 84 19 118 17 35 -3 106 16 157 41 52 25 105 38 118 30 14 -9 18 -6 9 9 -9 14 -2 23 17 23 17 0 31 13 31 29 0 36 58 20 95 -26 14 -17 25 -24 25 -16 0 9 20 1 44 -16 25 -17 66 -31 92 -31 38 0 44 -8 34 -40 -12 -37 -4 -40 112 -40 117 0 123 2 87 31 -22 18 -27 26 -13 19 14 -8 40 -1 58 13 18 15 35 25 39 23 15 -10 142 54 166 83 14 17 32 31 38 31 25 0 124 -96 109 -105 -9 -5 -4 -5 12 -1 15 4 39 -3 54 -16 15 -12 40 -18 56 -12 17 7 32 -5 39 -29 8 -33 17 -36 49 -19 21 11 45 15 52 8 29 -30 99 -17 143 26 25 26 69 52 97 59 29 7 52 21 52 31 0 10 18 18 40 18 22 0 40 -10 40 -21 0 -12 8 -16 19 -10 10 6 24 2 31 -9 7 -11 23 -15 34 -7 13 8 16 4 8 -10 -9 -14 -2 -23 17 -23 17 0 31 -14 31 -31 0 -39 44 -1 66 58 8 22 26 33 43 26 19 -7 25 -1 18 18 -7 18 1 29 20 29 41 0 80 144 64 232 -7 38 -3 70 10 78 12 8 17 27 10 44 -7 18 13 52 49 86 33 31 60 65 60 76 0 10 12 29 26 40 14 12 27 51 30 88 3 44 -2 57 -13 39 -13 -20 -21 -14 -30 23 -7 29 -37 59 -72 74 -36 15 -55 34 -47 47 9 15 3 14 -17 -2 -16 -13 -63 -23 -104 -21 -40 1 -79 -3 -86 -10 -7 -7 -31 -3 -55 9 -23 13 -35 15 -27 6 20 -21 -83 -89 -135 -89 -22 0 -52 19 -66 42 -18 28 -34 35 -50 22 -22 -18 -84 19 -65 39 4 4 -57 7 -136 6 -144 0 -166 -8 -317 -112 -49 -33 -57 -34 -85 -5 -21 21 -31 23 -31 6 0 -13 -18 -3 -40 22 -22 25 -40 39 -40 31 0 -9 -13 -5 -29 8 -16 14 -39 19 -50 11 -12 -7 -26 1 -33 17 -8 22 -38 28 -114 24 -95 -6 -121 -11 -214 -46 -16 -6 -37 -10 -45 -8 -8 2 -15 -6 -15 -16 0 -24 -50 -51 -127 -69 -34 -8 -52 -6 -44 6 6 10 -7 25 -29 32 -22 7 -40 21 -40 31 0 11 -8 19 -19 19 -10 0 -44 10 -75 23 -31 12 -92 26 -136 31 -76 8 -141 52 -143 96 -1 11 -22 30 -47 43 -25 13 -52 34 -61 48 -14 24 -118 9 -225 -32 -18 -7 -49 6 -72 29 -23 23 -42 32 -42 20z m336 -288 c-3 -94 -4 -170 -2 -170 2 0 37 23 78 50 273 185 600 -158 441 -463 -87 -169 -329 -220 -461 -98 l-52 49 0 -47 c0 -44 -80 -84 -110 -55 -5 6 -10 212 -10 457 l0 447 61 0 62 0 -7 -170z m-816 -191 c0 -394 57 -494 258 -450 132 30 147 73 144 430 l-3 321 60 0 61 0 0 -315 c0 -441 -82 -566 -350 -537 -231 26 -278 112 -287 523 l-7 329 62 0 62 0 0 -301z m3328 70 c0 -52 -8 -60 -75 -71 -115 -18 -122 -35 -133 -304 l-10 -244 -55 -1 -55 -1 0 336 0 336 62 0 c58 0 61 -4 49 -55 l-14 -55 46 44 c102 95 185 102 185 15z m-1354 12 c78 -48 146 -174 146 -270 l0 -71 -271 0 -272 0 13 -45 c44 -151 246 -206 350 -95 49 52 160 86 160 49 0 -228 -444 -275 -571 -60 -184 315 142 676 445 492z m748 -6 c83 -56 138 -159 138 -260 l0 -75 -260 0 c-223 0 -260 -5 -260 -31 0 -150 229 -223 343 -109 87 87 192 88 148 2 -76 -147 -332 -208 -463 -111 -353 263 -11 827 354 584z"/> <path d="M2302 1749 c-180 -205 44 -509 272 -370 126 77 139 293 24 390 -96 80 -215 72 -296 -20z"/> <path d="M3071 1769 c-106 -114 -90 -129 141 -129 235 0 255 16 150 122 -80 79 -221 83 -291 7z"/> <path d="M3812 1758 c-90 -107 -76 -118 148 -118 182 0 200 3 200 37 0 138 -251 197 -348 81z"/> </g></svg>